<svg width="110" height="110" viewBox="0 0 110 110" fill="none" xmlns="http://www.w3.org/2000/svg">
<path d="M60.5 33C64.8761 33 69.0729 34.7384 72.1673 37.8327C75.2616 40.9271 77 45.1239 77 49.5C77 50.9587 77.5795 52.3576 78.6109 53.3891C79.6424 54.4205 81.0413 55 82.5 55C83.9587 55 85.3576 54.4205 86.3891 53.3891C87.4205 52.3576 88 50.9587 88 49.5C88 42.2065 85.1027 35.2118 79.9454 30.0546C74.7882 24.8973 67.7935 22 60.5 22C59.0413 22 57.6424 22.5795 56.6109 23.6109C55.5795 24.6424 55 26.0413 55 27.5C55 28.9587 55.5795 30.3576 56.6109 31.3891C57.6424 32.4205 59.0413 33 60.5 33Z" fill="white"/>
<path d="M60.5 11C70.7108 11 80.5034 15.0562 87.7236 22.2764C94.9437 29.4965 99 39.2892 99 49.5C99 50.9587 99.5794 52.3576 100.611 53.3891C101.642 54.4205 103.041 55 104.5 55C105.959 55 107.358 54.4205 108.389 53.3891C109.421 52.3576 110 50.9587 110 49.5C110 36.3718 104.785 23.7813 95.5018 14.4982C86.2187 5.21516 73.6282 0 60.5 0C59.0413 0 57.6424 0.579462 56.6109 1.61091C55.5795 2.64236 55 4.04131 55 5.5C55 6.95869 55.5795 8.35764 56.6109 9.38909C57.6424 10.4205 59.0413 11 60.5 11ZM108.625 76.505C108.322 75.622 107.8 74.8306 107.107 74.2052C106.415 73.5798 105.574 73.1409 104.665 72.93L71.665 65.395C70.7692 65.1919 69.8369 65.2163 68.953 65.4661C68.0692 65.7159 67.2619 66.1831 66.605 66.825C65.835 67.54 65.78 67.595 62.205 74.415C50.3426 68.9489 40.8375 59.4047 35.42 47.52C42.405 44 42.46 44 43.175 43.175C43.8169 42.5181 44.2841 41.7108 44.5338 40.827C44.7836 39.9431 44.8081 39.0107 44.605 38.115L37.07 5.5C36.859 4.59083 36.4202 3.75029 35.7948 3.05751C35.1694 2.36474 34.3779 1.84251 33.495 1.54C32.2106 1.08124 30.8842 0.749652 29.535 0.549999C28.1449 0.227674 26.7263 0.0434464 25.3 0C18.59 0 12.1549 2.66553 7.4102 7.4102C2.66553 12.1549 0 18.59 0 25.3C0.0291055 47.7549 8.96217 69.2818 24.8402 85.1598C40.7182 101.038 62.2451 109.971 84.7 110C88.0224 110 91.3123 109.346 94.3819 108.074C97.4514 106.803 100.24 104.939 102.59 102.59C104.939 100.24 106.803 97.4514 108.074 94.3819C109.346 91.3123 110 88.0224 110 84.7C110.002 83.3001 109.891 81.9023 109.67 80.52C109.439 79.1539 109.089 77.8105 108.625 76.505Z" fill="white"/>
</svg>
