<svg width="92" height="92" viewBox="0 0 92 92" fill="none" xmlns="http://www.w3.org/2000/svg">
<path d="M46 0C20.6356 0 0 20.6356 0 46V65.0578C0 69.7682 4.1262 73.6 9.2 73.6H13.8C15.02 73.6 16.19 73.1154 17.0527 72.2527C17.9154 71.39 18.4 70.22 18.4 69V45.3422C18.4 44.1222 17.9154 42.9522 17.0527 42.0895C16.19 41.2268 15.02 40.7422 13.8 40.7422H9.6232C12.1808 22.9402 27.4988 9.2 46 9.2C64.5012 9.2 79.8192 22.9402 82.3768 40.7422H78.2C76.98 40.7422 75.81 41.2268 74.9473 42.0895C74.0846 42.9522 73.6 44.1222 73.6 45.3422V73.6C73.6 78.6738 69.4738 82.8 64.4 82.8H55.2V78.2H36.8V92H64.4C74.5476 92 82.8 83.7476 82.8 73.6C87.8738 73.6 92 69.7682 92 65.0578V46C92 20.6356 71.3644 0 46 0Z" fill="black"/>
</svg>
