<svg width="98" height="106" viewBox="0 0 98 106" fill="none" xmlns="http://www.w3.org/2000/svg">
<path d="M0 6.47662V99.059C0.000620251 99.2599 0.0605293 99.4561 0.172215 99.623C0.283901 99.79 0.442391 99.9202 0.627812 99.9975C0.813233 100.075 1.01733 100.095 1.21451 100.057C1.41169 100.019 1.59318 99.9233 1.73621 99.7822L49.9427 52.7702L1.73621 5.7534C1.59318 5.61237 1.41169 5.51672 1.21451 5.47842C1.01733 5.44013 0.813233 5.46091 0.627812 5.53815C0.442391 5.61538 0.283901 5.74565 0.172215 5.9126C0.0605293 6.07955 0.000620251 6.27576 0 6.47662Z" fill="#034078"/>
<path d="M70.1551 33.4529L9.7104 0.151473L9.67271 0.130271C8.63145 -0.435118 7.64202 0.973642 8.49481 1.79346L55.8767 47.0999L70.1551 33.4529Z" fill="#034078"/>
<path d="M8.49953 103.747C7.64202 104.567 8.63145 105.976 9.67742 105.411L9.71511 105.389L70.1552 72.0881L55.8767 58.4363L8.49953 103.747Z" fill="#034078"/>
<path d="M94.5565 46.8808L77.6773 37.5848L61.8064 52.7702L77.6773 67.9486L94.5565 58.6597C99.148 56.1225 99.148 49.418 94.5565 46.8808Z" fill="#034078"/>
</svg>
