<svg width="98" height="106" viewBox="0 0 98 106" fill="none" xmlns="http://www.w3.org/2000/svg">
<path d="M49 0C21.9319 0 0 23.6193 0 52.77C0 81.9207 21.9319 105.54 49 105.54C76.0681 105.54 98 81.9207 98 52.77C98 23.6193 76.0681 0 49 0ZM30.4062 75.831C30.1056 76.3833 29.6751 76.8406 29.1583 77.1569C28.6414 77.4733 28.0564 77.6375 27.4619 77.6332C26.856 77.6388 26.2606 77.4626 25.7425 77.1243C25.3567 76.8835 25.0189 76.5631 24.7484 76.1814C24.478 75.7997 24.2801 75.3642 24.1663 74.9C24.0525 74.4357 24.0249 73.9519 24.0852 73.4761C24.1455 73.0003 24.2924 72.5421 24.5175 72.1276L27.8622 66.1392C28.0312 65.8301 28.2724 65.574 28.5617 65.3963C28.851 65.2186 29.1785 65.1255 29.5116 65.1262H30.0059C32.4319 65.1262 34.1294 66.6975 34.6237 68.2194L30.4062 75.831ZM58.7234 64.0519L36.82 64.0779H22.2622C21.8042 64.0799 21.3505 63.9818 20.9288 63.7894C20.507 63.597 20.126 63.3144 19.8087 62.9586C19.4914 62.6028 19.2446 62.1813 19.0831 61.7197C18.9216 61.2581 18.8489 60.766 18.8694 60.2732C18.9394 58.2944 20.5428 56.7961 22.3694 56.7961H32.9219L45.4322 33.8623L41.3809 26.4298C40.4688 24.7359 40.8734 22.5026 42.4375 21.4378C42.8231 21.1693 43.2551 20.9874 43.7076 20.9033C44.1602 20.8192 44.6238 20.8344 45.0707 20.9482C45.5176 21.062 45.9385 21.2719 46.3081 21.5653C46.6777 21.8588 46.9884 22.2297 47.2216 22.6558L49.3872 26.6394H49.4113L51.5791 22.6558C51.8124 22.2319 52.1227 21.863 52.4913 21.571C52.8599 21.279 53.2793 21.07 53.7245 20.9563C54.1697 20.8427 54.6317 20.8267 55.0827 20.9094C55.5338 20.9922 55.9648 21.1719 56.35 21.4378C57.9053 22.5026 58.3056 24.7359 57.3869 26.4368L53.3356 33.8694L49.3981 41.0993L40.8472 56.8031V56.8291H53.4494C55.0287 56.8291 57.0084 57.7431 57.8091 59.2131L57.8791 59.3662C58.5856 60.6596 58.9859 61.5477 58.9859 62.8411C58.9744 63.261 58.8875 63.6746 58.73 64.059L58.7234 64.0519ZM75.7313 64.0779H69.8009V64.1038L74.1366 72.0452C74.6028 72.8816 74.7456 73.8817 74.5341 74.8302C74.3226 75.7788 73.7737 76.6001 73.0056 77.1172C72.4732 77.4668 71.8617 77.6518 71.2381 77.652C70.6452 77.6517 70.0625 77.4863 69.5466 77.1717C69.0306 76.8571 68.5991 76.4042 68.2938 75.8569L61.8866 64.1108L57.9053 56.8078L52.7691 47.3517C52.0251 46.0014 51.6208 44.4657 51.5958 42.8959C51.5709 41.3261 51.9263 39.7764 52.6269 38.3996C53.6419 36.4702 54.4184 35.9637 54.4184 35.9637L65.8438 56.7749H75.6678C77.5053 56.7749 79.0825 58.2967 79.1678 60.2497C79.1855 60.7462 79.1098 61.2414 78.9453 61.7057C78.7808 62.1699 78.5308 62.5935 78.2104 62.9511C77.8901 63.3086 77.5059 63.5928 77.081 63.7864C76.6561 63.98 76.1992 64.0792 75.7378 64.0779H75.7313Z" fill="#034078"/>
</svg>
