<svg width="79" height="79" viewBox="0 0 79 79" fill="none" xmlns="http://www.w3.org/2000/svg">
<path d="M43.45 7.9C50.7832 7.9 57.8161 10.8131 63.0015 15.9985C68.1869 21.1839 71.1 28.2168 71.1 35.55C71.1 36.5976 71.5162 37.6023 72.2569 38.3431C72.9977 39.0838 74.0024 39.5 75.05 39.5C76.0976 39.5 77.1023 39.0838 77.8431 38.3431C78.5838 37.6023 79 36.5976 79 35.55C79 26.1216 75.2546 17.0793 68.5876 10.4124C61.9207 3.74544 52.8784 0 43.45 0C42.4024 0 41.3977 0.416159 40.6569 1.15693C39.9162 1.8977 39.5 2.90239 39.5 3.95C39.5 4.99761 39.9162 6.0023 40.6569 6.74307C41.3977 7.48384 42.4024 7.9 43.45 7.9ZM78.0125 54.9445C77.7952 54.3104 77.4202 53.742 76.9227 53.2928C76.4251 52.8437 75.8215 52.5285 75.1685 52.377L51.4685 46.9655C50.8252 46.8196 50.1556 46.8372 49.5208 47.0166C48.886 47.196 48.3063 47.5315 47.8345 47.9925C47.2815 48.506 47.242 48.5455 44.6745 53.4435C36.1551 49.5178 29.3287 42.6634 25.438 34.128C30.4545 31.6 30.494 31.6 31.0075 31.0075C31.4685 30.5357 31.804 29.956 31.9834 29.3212C32.1628 28.6864 32.1804 28.0168 32.0345 27.3735L26.623 3.95C26.4715 3.29705 26.1563 2.69339 25.7072 2.19585C25.258 1.69831 24.6896 1.32326 24.0555 1.106C23.133 0.776528 22.1805 0.538387 21.2115 0.395C20.2131 0.163511 19.1944 0.0312024 18.17 0C13.351 0 8.72941 1.91433 5.32187 5.32187C1.91433 8.72941 0 13.351 0 18.17C0.0209031 34.2967 6.43647 49.7569 17.8398 61.1602C29.2431 72.5635 44.7033 78.9791 60.83 79C63.2161 79 65.5789 78.53 67.7834 77.6169C69.9878 76.7038 71.9909 75.3654 73.6781 73.6781C75.3654 71.9909 76.7038 69.9878 77.6169 67.7834C78.53 65.5789 79 63.2161 79 60.83C79.0012 59.8246 78.922 58.8207 78.763 57.828C78.597 56.8469 78.3459 55.8821 78.0125 54.9445Z" fill="#034078"/>
</svg>
