<svg width="75" height="75" viewBox="0 0 75 75" fill="none" xmlns="http://www.w3.org/2000/svg">
<path d="M55.5078 45.9989C55.5078 49.2843 56.4414 50.5945 58.8828 50.5945C64.3242 50.5945 67.7891 43.6522 67.7891 32.1065C67.7891 14.4595 54.9453 6.01142 38.9102 6.01142C22.4141 6.01142 7.41016 17.0878 7.41016 38.0202C7.41016 58.0139 20.5352 68.9025 40.6914 68.9025C47.5352 68.9025 52.1289 68.1516 59.1563 65.8049L60.6641 72.0901C53.7266 74.3468 46.3125 75 40.5977 75C14.1602 75 0 60.4506 0 38.0163C0 15.3942 16.4102 0 39.0039 0C62.5352 0 75 14.0801 75 31.3517C75 45.995 70.4102 57.1652 55.9727 57.1652C49.4063 57.1652 45.0977 54.5369 44.5352 48.7132C42.8477 55.1901 38.3477 57.1652 32.25 57.1652C24.0938 57.1652 17.25 50.8722 17.25 38.204C17.25 25.438 23.2539 17.5532 34.0352 17.5532C39.7539 17.5532 43.3164 19.806 44.9023 23.373L47.625 18.398H55.5V45.9989H55.5078ZM43.9805 33.6084C43.9805 28.4496 40.1328 26.2868 36.9453 26.2868C33.4766 26.2868 29.6367 29.0989 29.6367 37.3631C29.6367 43.9338 32.543 47.5946 36.9453 47.5946C40.0391 47.5946 43.9805 45.6234 43.9805 40.1791V33.6084Z" fill="#034078"/>
</svg>
