<svg width="87" height="108" viewBox="0 0 87 108" fill="none" xmlns="http://www.w3.org/2000/svg">
<path d="M85.2473 13.8389L45.2872 0.246495C44.8051 0.0821648 44.1583 0 43.5115 0C42.8647 0 42.2179 0.0821648 41.7358 0.246495L1.77574 13.8389C0.799672 14.1676 0 15.2944 0 16.3274V72.9508C0 73.9837 0.670313 75.3453 1.48174 75.9909L42.018 107.519C42.4296 107.836 42.9588 108 43.4997 108C44.0407 108 44.5817 107.836 44.9815 107.519L85.5178 75.9909C86.3292 75.357 86.9995 73.9954 86.9995 72.9508V16.3274C87.023 15.2944 86.2234 14.1793 85.2473 13.8389V13.8389ZM57.0118 58.924C51.3083 64.6169 42.5472 65.4033 36.0087 61.2833L26.8948 70.3802C26.718 70.5549 26.4792 70.653 26.2304 70.653C25.9815 70.653 25.7428 70.5549 25.566 70.3802L21.5676 66.3893C21.3925 66.2128 21.2943 65.9745 21.2943 65.7261C21.2943 65.4777 21.3925 65.2394 21.5676 65.0629L30.6815 55.9661C26.5538 49.4281 27.3417 40.6951 33.0452 35.0023C39.666 28.3939 50.391 28.3939 57.0118 35.0023C63.6326 41.6107 63.6326 52.3156 57.0118 58.924ZM38.3677 53.6103C39.2399 54.4946 40.2789 55.1978 41.4247 55.6794C42.5705 56.161 43.8005 56.4114 45.0437 56.4162C46.2869 56.4211 47.5188 56.1802 48.6684 55.7075C49.8179 55.2349 50.8623 54.5397 51.7413 53.6622C52.6204 52.7847 53.3168 51.7422 53.7902 50.5948C54.2637 49.4474 54.5049 48.2178 54.4999 46.9769C54.495 45.736 54.244 44.5083 53.7614 43.3647C53.2788 42.2211 52.5742 41.1842 51.6881 40.3137C50.8159 39.4294 49.777 38.7262 48.6312 38.2446C47.4854 37.763 46.2554 37.5126 45.0122 37.5077C43.7689 37.5029 42.5371 37.7438 41.3875 38.2164C40.238 38.6891 39.1936 39.3842 38.3145 40.2617C37.4355 41.1392 36.7391 42.1817 36.2657 43.3292C35.7922 44.4766 35.551 45.7062 35.556 46.9471C35.5609 48.188 35.8119 49.4156 36.2945 50.5593C36.7771 51.7029 37.4817 52.7398 38.3677 53.6103V53.6103Z" fill="black"/>
</svg>
