<svg width="114" height="78" viewBox="0 0 114 78" fill="none" xmlns="http://www.w3.org/2000/svg">
<path d="M92.7641 0C88.8774 3.69583 84.2539 6.54089 79.192 8.35157C73.8545 9.2874 59.0836 2.48137 51.8052 9.42919C50.5921 10.6344 49.0936 11.8397 47.5238 13.0449C44.0986 11.5561 38.8182 9.2874 34.9649 7.08962C31.1117 4.89184 21.4071 0 21.4071 0L0 24.8137C0 24.8137 5.28042 31.9033 8.56284 36.5824C10.7036 39.7019 13.3438 44.4519 15.0563 47.6422L12.6302 50.4781C12.0492 51.6248 11.8402 52.9222 12.0318 54.1918C12.2235 55.4614 12.8065 56.6408 13.7006 57.5677C14.7325 58.3364 15.9881 58.7507 17.2779 58.7482C18.5677 58.7456 19.8216 58.3263 20.8505 57.5535C20.469 57.9973 20.1803 58.5122 20.0012 59.068C19.8221 59.6238 19.7562 60.2095 19.8073 60.791C19.8585 61.3724 20.0256 61.9378 20.2991 62.4544C20.5725 62.9709 20.9468 63.4282 21.4 63.7995C22.4896 64.4318 23.7293 64.7638 24.9912 64.7613C26.253 64.7588 27.4914 64.4219 28.5785 63.7853C27.7632 64.795 27.3171 66.0497 27.3132 67.3441C27.3093 68.6385 27.7479 69.8959 28.5571 70.9104C29.609 71.2722 30.7308 71.3875 31.8349 71.2473C32.9391 71.1071 33.9956 70.7152 34.9221 70.1022C34.4606 71.1876 34.341 72.3865 34.5792 73.5408C34.8174 74.6951 35.4023 75.7505 36.2565 76.5679C37.4632 77.1006 38.7863 77.3202 40.1018 77.2062C41.4172 77.0921 42.682 76.648 43.7775 75.9157L47.4596 72.6048C50.8276 75.9369 55.473 78 60.6035 78L61.0388 77.9929C62.7296 77.8495 64.3493 77.2519 65.7244 76.264C67.0995 75.2762 68.1783 73.9353 68.8453 72.385C69.8871 72.782 71.0716 73.0514 72.3275 73.0514C74.0115 73.0514 75.5742 72.5694 76.8943 71.7399C81.0687 68.9962 80.0697 66.8693 80.0697 66.8693C81.5541 67.5041 83.2029 67.6546 84.7788 67.2992C86.3548 66.9437 87.7765 66.1007 88.8395 64.8913C89.9441 63.7686 90.6406 62.3121 90.819 60.7522C90.9973 59.1922 90.6473 57.6176 89.8242 56.2774C89.8694 56.3042 89.9217 56.3165 89.9741 56.3129C92.9782 56.3129 95.5899 54.6681 96.9528 52.2434C97.6235 50.5201 97.8501 48.6576 97.6121 46.8252C97.3741 44.9927 96.679 43.2484 95.5899 41.7508L95.6113 41.7862C101.463 40.6519 101.248 37.7451 104.103 33.4914C106.805 30.02 110.168 27.1102 114 24.9271L92.7641 0ZM92.4074 50.0527C89.2677 53.1722 86.8415 51.8251 81.4897 47.784C76.138 43.743 65.5058 36.1571 65.5058 36.1571C65.941 38.3194 66.9472 40.1981 68.3672 41.6941C70.6435 44.2392 77.4224 50.0527 80.6335 53.0304C82.6314 54.8737 87.7692 58.5603 84.7722 61.3961C81.7752 64.232 79.4204 61.3961 74.4967 57.4259C69.5731 53.4557 58.5841 43.6721 58.5841 43.6721C58.5236 44.6099 58.664 45.5498 58.9961 46.4297C59.3282 47.3097 59.8445 48.1096 60.5108 48.7766C61.7238 50.1945 68.5028 56.717 71.357 59.6946C74.2113 62.6722 76.7088 64.4446 74.2827 66.7842C71.8565 69.1238 66.9329 65.4372 64.2213 62.6722C60.0113 58.6312 51.6625 51.1162 51.6625 51.1162L51.6554 51.4919C51.6554 53.5054 52.3547 55.3487 53.532 56.8091C55.5871 59.489 59.5831 62.9629 62.0093 65.657C64.4354 68.351 65.8625 70.6197 62.0093 72.7466C58.156 74.8735 52.4474 69.6272 49.9499 67.0749V67.0607C49.9504 66.3605 49.6971 65.6835 49.2364 65.1536C48.3828 64.368 47.3297 63.8288 46.1905 63.5939C45.0512 63.359 43.8691 63.4375 42.7714 63.8208C43.223 63.419 43.5851 62.9279 43.8342 62.3788C44.0834 61.8298 44.2142 61.235 44.2183 60.6328C44.2223 60.0305 44.0995 59.4341 43.8577 58.8818C43.6159 58.3295 43.2604 57.8336 42.8142 57.4259C41.8776 56.7208 40.7343 56.3398 39.5591 56.3411C38.384 56.3424 37.2416 56.7259 36.3065 57.433C36.7793 56.9843 37.1443 56.4355 37.3744 55.8274C37.6044 55.2192 37.6936 54.5674 37.6354 53.9204C37.5771 53.2733 37.3728 52.6476 37.0378 52.0897C36.7027 51.5318 36.2454 51.0561 35.6999 50.6979C34.4225 49.9004 32.9236 49.5257 31.4184 49.6276C29.9133 49.7295 28.4793 50.3028 27.3226 51.265C28.0957 50.3341 28.4768 49.1424 28.3864 47.9388C28.296 46.7353 27.741 45.613 26.8374 44.8064C25.7143 43.7678 24.2832 43.1182 22.7578 42.9547C21.2324 42.7911 19.6947 43.1224 18.3744 43.8989L13.6292 35.9373C10.3468 30.7619 6.49349 25.3738 6.49349 25.3738L22.7629 5.7355C22.7629 5.7355 28.5428 9.28031 33.3237 11.9744C35.6785 13.3214 39.7459 15.0938 42.8142 16.5117C37.9619 20.1274 33.8946 23.6013 35.1077 26.0118C37.2694 27.5536 39.8529 28.4041 42.5137 28.4497C45.1744 28.4953 47.7859 27.7339 49.9999 26.267C52.8387 24.392 56.1743 23.3976 59.5831 23.4099C62.0592 23.4099 64.414 23.9204 66.5476 24.8491C70.5008 27.5006 77.7792 34.0231 84.4154 38.1351C92.7641 44.1612 94.4054 48.0605 92.4074 50.0456V50.0527Z" fill="black"/>
</svg>
