<svg width="104" height="104" viewBox="0 0 104 104" fill="none" xmlns="http://www.w3.org/2000/svg">
<path d="M79.7542 52.0003C79.7406 47.6302 79.2723 43.2734 78.3567 39.0003H90.0567C89.4542 37.2179 88.7265 35.4802 87.8792 33.8003H76.9917C74.945 26.9625 71.7705 20.5146 67.5992 14.7228C64.9342 13.6022 62.1554 12.774 59.3117 12.2528C65.0263 18.3928 69.3398 25.7003 71.9542 33.6703H54.4367V11.7003H49.5617V33.7028H32.0442C34.664 25.7184 38.9889 18.3992 44.7192 12.2528C41.8877 12.7653 39.12 13.5826 36.4642 14.6903C32.2765 20.4578 29.0801 26.8835 27.0067 33.7028H16.0542C15.1916 35.4134 14.453 37.1838 13.8442 39.0003H25.6417C24.7262 43.2734 24.2578 47.6302 24.2442 52.0003C24.2532 56.7803 24.7983 61.5443 25.8692 66.2028H14.3642C15.0366 68.0245 15.8404 69.795 16.7692 71.5003H27.2667C29.2564 77.7266 32.2061 83.6041 36.0092 88.9203C38.7326 90.0884 41.5777 90.9495 44.4917 91.4878C39.1875 85.702 35.1082 78.9032 32.4992 71.5003H49.5942V92.1053H54.4692V71.5003H71.4992C68.8814 78.9063 64.7909 85.7055 59.4742 91.4878C62.4019 90.931 65.2581 90.048 67.9892 88.8553C71.7863 83.559 74.7358 77.7039 76.7317 71.5003H87.1317C88.0563 69.8265 88.86 68.0888 89.5367 66.3003H77.9992C79.1212 61.615 79.7099 56.8179 79.7542 52.0003V52.0003ZM49.5617 66.2028H30.9067C28.6186 57.2583 28.5183 47.8943 30.6142 38.9028H49.5617V66.2028ZM73.0917 66.2028H54.4367V39.0003H73.3842C74.3178 43.2699 74.7756 47.6299 74.7492 52.0003C74.7757 56.7842 74.219 61.5535 73.0917 66.2028V66.2028Z" fill="black"/>
<path d="M52 0C41.7154 0 31.6617 3.04975 23.1104 8.76358C14.559 14.4774 7.89404 22.5987 3.95829 32.1005C0.0225306 41.6022 -1.00724 52.0577 0.999189 62.1447C3.00562 72.2317 7.95814 81.4972 15.2305 88.7695C22.5028 96.0419 31.7683 100.994 41.8553 103.001C51.9423 105.007 62.3978 103.977 71.8995 100.042C81.4013 96.106 89.5226 89.441 95.2364 80.8896C100.95 72.3383 104 62.2846 104 52C104 38.2087 98.5214 24.9823 88.7696 15.2304C79.0177 5.47856 65.7913 0 52 0V0ZM52 97.5C43.001 97.5 34.204 94.8315 26.7216 89.8319C19.2391 84.8322 13.4073 77.7261 9.9635 69.4121C6.51972 61.098 5.61866 51.9495 7.37429 43.1234C9.12992 34.2972 13.4634 26.1899 19.8267 19.8266C26.1899 13.4633 34.2973 9.1299 43.1234 7.37427C51.9495 5.61864 61.0981 6.51969 69.4121 9.96348C77.7261 13.4073 84.8323 19.2391 89.8319 26.7215C94.8315 34.204 97.5 43.0009 97.5 52C97.5 64.0673 92.7063 75.6404 84.1734 84.1733C75.6405 92.7062 64.0674 97.5 52 97.5Z" fill="black"/>
</svg>
